<svg width="760" height="620" viewBox="0 0 760 620" fill="none" xmlns="http://www.w3.org/2000/svg" role="img" aria-labelledby="title desc">
  <title id="title">Mobile developer workspace illustration</title>
  <desc id="desc">A refined abstract visual showing app screens, code panels, and integration nodes.</desc>
  <rect width="760" height="620" rx="44" fill="#F8FAFC"/>
  <rect x="70" y="76" width="620" height="468" rx="34" fill="#E7EEF6"/>
  <rect x="112" y="118" width="536" height="384" rx="28" fill="white"/>
  <rect x="145" y="155" width="252" height="286" rx="30" fill="#18202F"/>
  <rect x="169" y="188" width="204" height="218" rx="20" fill="#F8FAFC"/>
  <rect x="190" y="211" width="88" height="12" rx="6" fill="#0E7490"/>
  <rect x="190" y="241" width="156" height="10" rx="5" fill="#CBD5E1"/>
  <rect x="190" y="267" width="128" height="10" rx="5" fill="#CBD5E1"/>
  <rect x="190" y="312" width="56" height="56" rx="16" fill="#DDF7E9"/>
  <path d="M207 340L219 352L241 326" stroke="#15803D" stroke-width="8" stroke-linecap="round" stroke-linejoin="round"/>
  <rect x="264" y="315" width="82" height="10" rx="5" fill="#94A3B8"/>
  <rect x="264" y="342" width="60" height="10" rx="5" fill="#CBD5E1"/>
  <circle cx="271" cy="424" r="9" fill="#F8FAFC"/>
  <rect x="434" y="158" width="164" height="124" rx="22" fill="#0E7490"/>
  <rect x="460" y="187" width="96" height="10" rx="5" fill="#CFFAFE"/>
  <rect x="460" y="216" width="112" height="10" rx="5" fill="#99F6E4"/>
  <rect x="460" y="245" width="68" height="10" rx="5" fill="#CFFAFE"/>
  <rect x="434" y="318" width="164" height="124" rx="22" fill="#F3F7FB"/>
  <rect x="462" y="350" width="106" height="10" rx="5" fill="#64748B"/>
  <rect x="462" y="379" width="78" height="10" rx="5" fill="#94A3B8"/>
  <rect x="462" y="408" width="118" height="10" rx="5" fill="#CBD5E1"/>
  <circle cx="620" cy="118" r="18" fill="#C2410C"/>
  <circle cx="631" cy="498" r="26" fill="#15803D"/>
  <path d="M399 244C430 244 430 221 461 221" stroke="#94A3B8" stroke-width="8" stroke-linecap="round"/>
  <path d="M399 365C432 365 430 382 462 382" stroke="#94A3B8" stroke-width="8" stroke-linecap="round"/>
  <path d="M599 221H646C662 221 675 234 675 250V470C675 486 662 499 646 499H633" stroke="#CBD5E1" stroke-width="8" stroke-linecap="round"/>
</svg>
